<?xml version="1.0" encoding="utf-8"?>
<svg id="master-artboard" viewBox="400 200 800 500" version="1.1" xmlns="http://www.w3.org/2000/svg" x="0px" y="0px" style="enable-background:new 0 0 400 300;" width="400px" height="300px"><defs><style id="ee-google-fonts">@import url(https://fonts.googleapis.com/css?family=Rubik:300,300italic,400,400italic,500,500italic,700,700italic,900,900italic);</style></defs>




<g transform="matrix(4.900000095367432, 0, 0, 4.900000095367432, -2541.2449770320113, -37.16610690217543)"><g id="g-1" transform="matrix(1, 0, 0, 1, 0, 0)">
	<g id="g-2">
		<path class="st0" d="M652,46c27.6,0,50,22.4,50,50s-22.4,50-50,50s-50-22.4-50-50S624.4,46,652,46z" style="fill: rgb(51, 51, 51);"/>
	</g>
</g></g><g transform="matrix(1.3681453466415405, 0, 0, 1.3681453466415405, -124.69927916709489, -190.70738561231468)"><g id="Layer_2_20_" transform="matrix(1, 0, 0, 1, 0, 0)">
	<path class="st0" d="M509.4,349.5c-4.1-7.2-10.8-7.2-14.9,0L459.4,411c-4.1,7.2-0.7,13,7.6,13h70c8.2,0,11.7-5.9,7.6-13&#10;&#9;&#9;L509.4,349.5z" style="fill: rgb(255, 180, 180);"/>
</g></g><g transform="matrix(1.2658905982971191, 0, 0, 1.2658905982971191, 494.956372913862, 136.95986666408436)"><g id="Layer_2_19_" transform="matrix(1, 0, 0, 1, 0, 0)">
	<g id="Layer_1-2_19_">
		<path class="st0" d="M282.5,236.3c2.1,2.1,2.1,5.4,0,7.5c0,0,0,0,0,0l-44.7,44.7c-2.1,2.1-5.4,2.1-7.5,0l-44.7-44.7&#10;&#9;&#9;&#9;c-2.1-2.1-2.1-5.4,0-7.5c0,0,0,0,0,0l44.7-44.7c2.1-2.1,5.4-2.1,7.5,0c0,0,0,0,0,0L282.5,236.3z" style="fill: rgb(180,255, 180);"/>
	</g>
</g></g><g transform="matrix(1.2633910179138184, 0, 0, 1.2633910179138184, 115.21677475861968, -119.42201677349527)"><g id="Layer_2_15_" transform="matrix(1, 0, 0, 1, 0, 0)">
	<g id="Layer_1-2_15_">
		<path class="st0" d="M362.4,563c-5.4,0-12-4-14.7-8.7l-16.6-29c-2.7-4.7-2.7-12.4,0-17.2l16.6-28.8c2.7-4.7,9.4-8.4,14.7-8.4h33.3&#10;&#9;&#9;&#9;c5.4,0,12,3.7,14.7,8.4l16.6,28.8c2.7,4.7,2.7,12.4,0,17.1l-16.6,29c-2.7,4.7-9.4,8.7-14.8,8.7H362.4z" style="fill: rgb(180, 180, 255);"/>
	</g>
</g></g></svg>